<?xml version="1.0" encoding="UTF-8" standalone="no"?>
<svg xmlns="http://www.w3.org/2000/svg" version="1.1" width="375" height="625" viewBox="0 0 375 625">

  <g id="layer1"
     transform="translate(-245.21,-32.12)">
    <path
       style="fill:#77B5FF;fill-opacity:1;fill-rule:evenodd;stroke:#000000;stroke-width:1px;stroke-linecap:butt;stroke-linejoin:miter;stroke-opacity:1"
       d="M 558.16646,118.40989 265.7806,58.846347 l 0,430.324973 293.39601,59.7693 c 6.58539,1.3416 12.12183,4.5033 12.12183,-9.1473 l 0,-9.3872 c 0,0 -0.98416,-12.5219 16.16242,-9.0289 16.81984,3.4613 16.16241,-9.0289 16.16241,-9.0289 l 5e-5,-113.2876 c 0,0 0.14566,-12.2958 -15.07535,-15.3966 -15.20927,-3.0983 -17.24953,-17.617 -17.24953,-17.617 l 0,-232.33514 c 0.43213,-15.36051 -6.69636,-14.18297 -13.13198,-15.30209 z"
       id="path8" />
    <path
       style="fill:#eeeeee;fill-opacity:1;fill-rule:evenodd;stroke:none"
       d="m 492.12609,654.02805 -0.32735,-397.50449 c 0.23106,-15.23063 -3.58062,-16.29939 -7.02181,-19.4474 L 328.4351,85.332628 l 0,430.502752 156.37364,153.41268 c 8.47181,2.13808 7.76344,-8.45489 7.31735,-15.22001 z"
       transform="matrix(1.2967879,-0.2286578,0,0.9931109,-136.95273,63.111634)" />
    <path
       style="fill:#7EBDFF;fill-opacity:1;fill-rule:evenodd;stroke:#000000;stroke-width:0.73139018px;stroke-linecap:butt;stroke-linejoin:miter;stroke-opacity:1"
       d="M 421.98813,210.45557 265.64629,58.712037 l 0,430.502783 141.15959,137.31865 c 3.5174,3.4217 10.34784,8.85469 10.34784,-4.80161 0,0 -0.0639,4.91066 -0.0639,-15.32604 l 0,-147.8997 c 0,0 -0.50311,-18.6786 11.9201,-6.6208 l 0,-221.98235 c 0.23106,-15.23063 -3.58062,-16.29939 -7.02181,-19.4474 z" />
  </g>

</svg>
