<?xml version="1.0" encoding="utf-8"?>
<svg version="1.2" baseProfile="tiny" xmlns="http://www.w3.org/2000/svg" xmlns:xlink="http://www.w3.org/1999/xlink"
	 x="0px" y="0px" width="96px" height="96px" viewBox="0 0 96 96" xml:space="preserve">
<g class="icon">
	<polygon points="67.447,14.779 60.795,14.779 60.795,25.87 69.666,16.999 	"/>
	<polygon points="29.861,56.805 32.611,54.055 29.861,54.055 	"/>
	<path d="M57.742,45.592h13.094v31.094H26.65l-4.535,4.535h56.803c1.082,0,1.959-0.877,1.959-1.959V28.215l-2.879-2.88	L57.742,45.592z"/>
	<path d="M25.164,45.592h15.91l7.057-7.057H25.164V14.779h-8.08c-1.085,0-1.961,0.878-1.961,1.961v54.803l10.041-10.041V45.592z"/>
	<polygon points="64.844,65.055 38.28,65.055 34.357,68.979 64.844,68.979 "/>
	<polygon points="64.844,54.055 49.279,54.055 45.358,57.977 64.844,57.977 	"/>
	<polygon points="55.129,17.407 41.524,17.407 41.524,34.895 51.771,34.895 55.129,31.536 	"/>
	<polygon points="82.079,8.85 86.17,12.942 47.483,51.607 13.921,85.15 9.831,81.057 "/>
</g>
</svg>
