<?xml version="1.0" encoding="utf-8"?>
<svg version="1.2" baseProfile="tiny" xmlns="http://www.w3.org/2000/svg" xmlns:xlink="http://www.w3.org/1999/xlink"
	 x="0px" y="0px" width="96px" height="96px" viewBox="0 0 96 96" xml:space="preserve">
<g class="icon">
  <path d="M 84,27 V 12 H 69 l -44.24,44.24 15,15 z M 13.16,67.84 c -1.56,1.56 -1.56,4.08 0,5.64 l 9.36,9.36 c 1.56,1.56 4.08,1.56 5.64,0 l 7.32,-7.32 -15,-15 z"/>
</g>
<g class="icon stroked" fill="none" stroke="currentColor" stroke-linecap="round">
  <path stroke-width="8" d="M10.479,10c0,0-1.229,6.75,2.521,14c3.547,6.858,15,15,15,15"/>
  <path stroke-width="8" d="M85.808,86c0,0,1.229-6.75-2.521-14c-3.547-6.858-15-15-15-15"/>
</g>
</svg>
