<?xml version="1.0" encoding="utf-8"?>
<svg version="1.2" baseProfile="tiny" xmlns="http://www.w3.org/2000/svg" xmlns:xlink="http://www.w3.org/1999/xlink"
	 x="0px" y="0px" width="96px" height="96px" viewBox="0 0 96 96" xml:space="preserve">
<g class="icon">
	<path d="M36.014,60.159c9.123,0,16.513-7.392,16.513-16.515c0-9.12-7.39-16.512-16.513-16.512
		c-9.12,0-16.511,7.392-16.511,16.512C19.503,52.768,26.895,60.159,36.014,60.159 M48.595,48.598
		c-2.523,4.893-6.85,8.125-11.775,8.125c-4.921,0-9.252-3.232-11.774-8.125H48.595z M45.98,62.301c-2.97,1.592-6.363,2.5-9.966,2.5
		c-3.599,0-6.99-0.906-9.962-2.5c-6.415,1.686-11.443,5.68-13.746,14.27h47.422C57.424,67.98,52.398,63.984,45.98,62.301
		 M55.74,40.894h16.816c-2.521,4.892-6.85,8.124-11.773,8.124c-1.859,0-3.635-0.462-5.26-1.301
		c-0.271,1.295-0.662,2.545-1.172,3.735c1.758,0.638,3.648,1.003,5.627,1.003c9.123,0,16.514-7.392,16.514-16.514
		c0-9.119-7.391-16.511-16.514-16.511c-5.664,0-10.656,2.854-13.631,7.198C51.35,29.676,54.9,34.85,55.74,40.894 M69.943,54.598
		c-2.969,1.592-6.363,2.498-9.965,2.498c-2.824,0-5.515-0.564-7.98-1.574c-1.086,1.451-2.359,2.754-3.791,3.865
		c5.375,1.705,9.365,4.838,12.063,9.479h23.424C81.389,60.275,76.363,56.281,69.943,54.598"/>
</g>
</svg>
