<?xml version="1.0" encoding="utf-8"?>
<svg version="1.2" baseProfile="tiny" xmlns="http://www.w3.org/2000/svg" xmlns:xlink="http://www.w3.org/1999/xlink"
	 x="0px" y="0px" width="96px" height="96px" viewBox="0 0 96 96" xml:space="preserve">
<g class="icon">
	<path d="M32.115,34.997c-2.81,0-5.121,2.3-5.121,5.121v15.765
		c0,2.82,2.311,5.121,5.121,5.121h1.76c2.811,0,5.122-2.301,5.122-5.121V40.118c0-2.821-2.311-5.121-5.122-5.121H32.115z
		 M62.124,59.004c-2.811,0-5.121,2.299-5.121,5.121v15.764c0,2.822,2.311,5.121,5.121,5.121h1.761c2.81,0,5.122-2.299,5.122-5.121
		V64.125c0-2.822-2.313-5.121-5.122-5.121H62.124z M62.124,10.99c-2.811,0-5.121,2.301-5.121,5.121v15.765
		c0,2.821,2.311,5.122,5.121,5.122h1.761c2.821,0,5.122-2.301,5.122-5.122V16.111c0-2.82-2.301-5.121-5.122-5.121H62.124z
		 M54.002,21.993H11.989v4.001h42.013V21.993z M84.011,21.993H72.007v4.001h12.004V21.993z M23.992,46H11.989v4h12.003V46z
		 M84.011,46H41.998v4h42.013V46z M54.002,70.006H11.989v4.002h42.013V70.006z M84.011,70.006H72.007v4.002h12.004V70.006z"/>
</g>
</svg>
