<?xml version="1.0" encoding="utf-8"?>
<svg version="1.2" baseProfile="tiny" xmlns="http://www.w3.org/2000/svg" xmlns:xlink="http://www.w3.org/1999/xlink"
	 x="0px" y="0px" width="96px" height="96px" viewBox="0 0 96 96" xml:space="preserve">
<g class="icon">
	<path style="fill-rule:evenodd" d="M64.005,67h-34.01v-2h34.01V67z M49.995,61h-20v-2h20V61z M56.005,55h-26.01v-2h26.01
		V55z M66.005,49h-36.01v-2h36.01V49z M49.995,43h-20v-2h20V43z M72.005,20.99h-14l1.16,3.49c5.52,1.211,6.84,4.56,6.84,8.51h-36.01
		c0-3.76,1.56-6.969,6.77-8.309l1.23-3.691h-14v60.02h48.01V20.99z M47.995,11.99c-1.65,0-3,1.34-3,3c0,1.65,1.35,3,3,3
		c1.66,0,3-1.35,3-3C50.995,13.33,49.655,11.99,47.995,11.99 M17.995,87.01V14.99h24c0-3.32,2.689-6,6-6c3.32,0,6.01,2.68,6.01,6h24
		v72.02H17.995z"/>
</g>
</svg>
