<?xml version="1.0" encoding="utf-8"?>
<svg version="1.2" baseProfile="tiny" xmlns="http://www.w3.org/2000/svg" xmlns:xlink="http://www.w3.org/1999/xlink"
	 x="0px" y="0px" width="96px" height="96px" viewBox="0 0 96 96" xml:space="preserve">
<g class="icon">
	<path d="M40.103,58.048v-3.06c0-1.406,0.145-2.681,0.435-3.825
		c0.289-1.144,0.729-2.232,1.322-3.267c0.594-1.033,1.358-2.039,2.295-3.018c0.937-0.978,2.068-1.992,3.391-3.039
		c1.158-0.91,2.136-1.723,2.935-2.44c0.8-0.716,1.447-1.427,1.943-2.13c0.496-0.702,0.855-1.439,1.076-2.211
		c0.221-0.771,0.33-1.669,0.33-2.688c0-1.572-0.531-2.868-1.592-3.887c-1.062-1.021-2.682-1.53-4.858-1.53
		c-1.903,0-3.949,0.4-6.141,1.199c-2.19,0.8-4.459,1.778-6.802,2.936l-4.218-9.138c1.185-0.689,2.474-1.344,3.867-1.964
		c1.392-0.621,2.839-1.172,4.341-1.654s3.025-0.862,4.569-1.137c1.544-0.276,3.06-0.414,4.549-0.414
		c2.812,0,5.347,0.339,7.608,1.013c2.261,0.676,4.177,1.661,5.747,2.957c1.572,1.295,2.777,2.868,3.619,4.713
		c0.84,1.848,1.261,3.956,1.261,6.327c0,1.736-0.193,3.288-0.579,4.652c-0.386,1.363-0.957,2.633-1.715,3.804
		c-0.76,1.172-1.71,2.302-2.854,3.39c-1.145,1.089-2.475,2.24-3.99,3.453c-1.158,0.91-2.103,1.704-2.834,2.378
		c-0.73,0.675-1.302,1.315-1.715,1.922c-0.414,0.607-0.696,1.235-0.848,1.882c-0.151,0.647-0.228,1.412-0.228,2.294v2.481H40.103z
		 M38.738,72.189c0-1.295,0.186-2.391,0.559-3.287c0.371-0.896,0.888-1.619,1.549-2.171c0.662-0.552,1.441-0.95,2.337-1.198
		c0.895-0.249,1.853-0.373,2.873-0.373c0.965,0,1.882,0.124,2.75,0.373c0.867,0.248,1.633,0.646,2.295,1.198
		c0.661,0.552,1.185,1.275,1.57,2.171c0.387,0.896,0.58,1.992,0.58,3.287c0,1.241-0.193,2.302-0.58,3.184
		c-0.386,0.883-0.909,1.613-1.57,2.192c-0.662,0.578-1.428,0.998-2.295,1.261c-0.868,0.262-1.785,0.393-2.75,0.393
		c-1.02,0-1.978-0.131-2.873-0.393c-0.896-0.263-1.675-0.683-2.337-1.261c-0.661-0.579-1.178-1.31-1.549-2.192
		C38.924,74.491,38.738,73.431,38.738,72.189"/></g>
</svg>
