<?xml version="1.0" encoding="utf-8"?>
<svg version="1.2" baseProfile="tiny" xmlns="http://www.w3.org/2000/svg" xmlns:xlink="http://www.w3.org/1999/xlink"
	 x="0px" y="0px" width="96px" height="96px" viewBox="0 0 96 96" xml:space="preserve">
<g class="icon">
	<path d="M69.916,60.883c-3.232,0-6.123,1.44-8.088,3.704L36.375,50.893c0.26-0.921,0.408-1.888,0.408-2.893
		c0-1.005-0.148-1.971-0.408-2.891l25.453-13.696c1.965,2.264,4.855,3.705,8.088,3.705c5.898,0,10.695-4.793,10.695-10.666
		c0-5.897-4.797-10.693-10.695-10.693c-5.904,0-10.699,4.796-10.699,10.693c0,1.003,0.148,1.97,0.41,2.891L34.16,41.017
		c-1.962-2.251-4.85-3.678-8.078-3.678c-5.898,0-10.693,4.758-10.693,10.661s4.795,10.661,10.693,10.661
		c3.228,0,6.116-1.426,8.08-3.68l25.465,13.677c-0.262,0.921-0.41,1.888-0.41,2.888c0,5.899,4.795,10.695,10.699,10.695
		c5.898,0,10.695-4.796,10.695-10.695C80.611,65.674,75.814,60.883,69.916,60.883"/>
</g>
</svg>
