<?xml version="1.0" encoding="utf-8"?>
<svg version="1.2" baseProfile="tiny" xmlns="http://www.w3.org/2000/svg" xmlns:xlink="http://www.w3.org/1999/xlink"
	 x="0px" y="0px" width="96px" height="96px" viewBox="0 0 96 96" xml:space="preserve">
<g class="icon">
  <polygon points="73.449,73.377 73.449,59.951 69.248,59.951 69.248,73.377 56.018,73.377 56.018,77.578
    69.248,77.578 69.248,91 73.449,91 73.449,77.578 86.676,77.578 86.676,73.377 "/>
  <path d="M48.425,48.76h-22.68v-2h22.68V48.76z M39.085,42.75h-13.34v-2h13.34V42.75z M43.085,36.75h-17.34v-2h17.34
    V36.75z M49.755,30.75h-24.01v-2h24.01V30.75z M39.085,24.75h-13.34v-2h13.34V24.75z M55.755,11.75h-36.01v48.01h36.01V11.75z
     M13.745,5.74h48.01v60.02h-48.01V5.74z"/>
</g>
</svg>
