<?xml version="1.0" encoding="utf-8"?>
<svg version="1.2" baseProfile="tiny" xmlns="http://www.w3.org/2000/svg" xmlns:xlink="http://www.w3.org/1999/xlink"
	 x="0px" y="0px" width="96px" height="96px" viewBox="0 0 96 96" xml:space="preserve">
<g class="icon">
	<path d="M68.917,41.842c-0.046-0.281-0.218-0.557-0.476-0.82
		c-2.079,2.112-10.444,2.462-20.445,2.462s-18.358-0.35-20.446-2.462c-0.257,0.263-0.417,0.539-0.476,0.82h-0.019l0.006,0.152
		c0,0.018-0.006,0.036-0.006,0.054c0,0.041,0.011,0.077,0.017,0.116L28.7,75.518h0.004c0.145,2.615,3.139,6.568,19.292,6.568
		c16.155,0,19.151-3.953,19.292-6.568H67.3l1.63-33.354c0.003-0.039,0.016-0.075,0.016-0.116c0-0.018-0.013-0.036-0.013-0.054
		l0.013-0.152H68.917z"/>
	<path d="M57.95,24.386v-7.875c0-1.422-1.164-2.597-2.595-2.597H39.769
		c-1.421,0-2.59,1.175-2.59,2.597v7.965c-7.706,0.874-12.981,2.644-12.981,4.694v3.893c0,0.799,0.809,1.559,2.26,2.244
		c3.801,1.786,12.017,3.024,21.538,3.024c9.528,0,17.741-1.238,21.547-3.024c1.442-0.685,2.259-1.445,2.259-2.244v-3.893
		C71.802,27.048,66.12,25.221,57.95,24.386 M42.161,24.06l-0.657,0.041v-3.262c0-1.426,0.199-2.594,0.434-2.594h3.032h5.193h3.027
		c0.239,0,0.435,1.168,0.435,2.594v3.209c-1.806-0.093-3.685-0.152-5.629-0.152C45.981,23.896,44.024,23.955,42.161,24.06"/>
</g>
</svg>
