<?xml version="1.0" encoding="utf-8"?>
<svg version="1.2" baseProfile="tiny" xmlns="http://www.w3.org/2000/svg" xmlns:xlink="http://www.w3.org/1999/xlink"
	 x="0px" y="0px" width="96px" height="96px" viewBox="0 0 96 96" xml:space="preserve">
<g class="icon">
  <g>
    <path d="M 84,27 V 12 H 69 l -44.24,44.24 15,15 z M 13.16,67.84 c -1.56,1.56 -1.56,4.08 0,5.64 l 9.36,9.36 c 1.56,1.56 4.08,1.56 5.64,0 l 7.32,-7.32 -15,-15 z"/>
  </g>
  <polygon points="14.381,37.7 14.381,41.7 81.619,41.7 81.604,37.7 "/>
  <polygon points="14.381,57.7 14.381,61.7 81.619,61.7 81.604,57.7 "/>
  <polygon points="14.381,77.7 14.381,81.7 81.619,81.7 81.604,77.7 "/>
  <polygon points="14.381,17.7 14.381,21.7 81.619,21.7 81.604,17.7 "/>
</g>
</svg>
