<?xml version="1.0" encoding="utf-8"?>
<svg version="1.2" baseProfile="tiny" xmlns="http://www.w3.org/2000/svg" xmlns:xlink="http://www.w3.org/1999/xlink"
	 x="0px" y="0px" width="96px" height="96px" viewBox="0 0 96 96" xml:space="preserve">
<g class="icon">
	<path d="M49.985,48.159c9.119,0,16.512-7.392,16.512-16.515c0-9.12-7.392-16.512-16.512-16.512
		c-9.123,0-16.513,7.392-16.513,16.512C33.473,40.768,40.862,48.159,49.985,48.159 M60.954,36.598
		c-2.522,4.894-6.854,8.125-11.774,8.125c-4.925,0-9.252-3.231-11.775-8.125H60.954z M40.02,50.301
		c-6.418,1.684-11.443,5.68-13.748,14.27h47.422c-2.303-8.59-7.331-12.584-13.745-14.27c-2.973,1.594-6.363,2.5-9.963,2.5
		C46.383,52.801,42.99,51.893,40.02,50.301 M30.26,28.894c0.84-6.044,4.391-11.218,9.393-14.266
		c-2.975-4.344-7.967-7.198-13.631-7.198c-9.123,0-16.514,7.392-16.514,16.511c0,9.122,7.391,16.514,16.514,16.514
		c1.979,0,3.869-0.365,5.627-1.003c-0.51-1.19-0.9-2.44-1.172-3.735c-1.625,0.84-3.4,1.301-5.26,1.301
		c-4.923,0-9.252-3.231-11.773-8.124H30.26 M16.057,42.598c-6.42,1.684-11.445,5.678-13.75,14.269H25.73
		c2.697-4.642,6.688-7.774,12.063-9.479c-1.432-1.111-2.705-2.414-3.791-3.865c-2.465,1.011-5.156,1.574-7.98,1.574
		C22.42,45.096,19.025,44.189,16.057,42.598"/>
<polygon points="80.449,69.377 80.449,55.951 76.248,55.951 76.248,69.377 63.018,69.377 63.018,73.578
	76.248,73.578 76.248,87 80.449,87 80.449,73.578 93.676,73.578 93.676,69.377 "/>
</g>
</svg>
