<?xml version="1.0" encoding="utf-8"?>
<svg version="1.2" baseProfile="tiny" xmlns="http://www.w3.org/2000/svg" xmlns:xlink="http://www.w3.org/1999/xlink"
  x="0px" y="0px" width="96px" height="96px" viewBox="0 0 96 96" xml:space="preserve">
<g>
  <path fill="#000000" d="M0,0 L96,0 96,96 0,96 Z M23.371,41.777 L47.998,20.512 72.634,41.777 77.721,35.881
    47.998,10.222 18.279,35.881 Z M72.629,54.223 L48.002,75.488 23.366,54.223 18.279,60.119 48.002,85.777 77.722,60.119 Z" />
  <polygon fill="#FFFFFF" points="23.371,41.777 47.998,20.512 72.634,41.777 77.721,35.881 47.998,10.222 18.279,35.881" />
  <polygon fill="#FFFFFF" points="72.629,54.223 48.002,75.488 23.366,54.223 18.279,60.119 48.002,85.777 77.722,60.119" />
</g>
</svg>
