<?xml version="1.0" encoding="UTF-8"?>
<svg width="228" height="228" version="1.0" xmlns="http://www.w3.org/2000/svg" xmlns:xlink="http://www.w3.org/1999/xlink" viewBox="0 0 228 228">
 <defs>
  <linearGradient id="linearGradient3258" x1="14.069" x2="14.143" y1="14.623" y2="8.8007" gradientTransform="matrix(4.1729 4.1729 -9.9065 9.9065 113.78 171.45)" gradientUnits="userSpaceOnUse">
   <stop stop-opacity=".52344" offset="0"/>
   <stop stop-color="#fff" stop-opacity=".78039" offset="1"/>
  </linearGradient>
  <linearGradient id="linearGradient3254" x1="43.549" x2="48.452" y1="52.405" y2="43.595" gradientTransform="matrix(4.3531 0 0 4.3531 -6.0063 281.37)" gradientUnits="userSpaceOnUse">
   <stop stop-color="#2b2b2b" stop-opacity=".67188" offset="0"/>
   <stop stop-opacity=".58594" offset=".28481"/>
   <stop stop-color="#333" stop-opacity="0" offset="1"/>
  </linearGradient>
 </defs>
 <g transform="translate(-11.5956 -299.19)">
  <g transform="matrix(4.7034 4.7034 -4.5224 4.5224 151.98 208.99)" fill="#02126d">
   <path transform="matrix(.61897 0 0 .69686 27.512 20.444)" d="m13.728 10.978v-7.4452l5.3994 3.1173c0.43545 0.25651 0.47055 0.91841 0.04141 1.1866l-5.4408 3.1413z" fill="#2841D5"/>
  </g>
  <path d="m81.794 315.24c-9.4755-0.54649-23.471 6.4667-35.641 18.637-16.227 16.227-23.079 35.687-15.372 43.395 1.8121 1.8121 4.2961 2.7281 7.2098 2.9927l-1.4964-1.4964c0.05742-0.0775 0.06817-0.2042 0.13603-0.27207 0.29914-0.29914 0.74102-0.44467 1.2243-0.54413 1.5075-0.31024 3.9937 0.30158 7.0737 1.7684 8.7789-1.9406 19.589-8.2986 29.247-17.956 16.227-16.227 23.079-35.687 15.372-43.395-1.9269-1.9269-4.5954-2.9466-7.7539-3.1288z" fill="#112281"/>
  <g transform="matrix(4.7034 4.7034 -4.7034 4.7034 157.77 203.2)" fill="#2841d5">
   <path transform="matrix(.46276 -.46276 .46276 .46276 -11.452 29.489)" d="m26.562 8.9688-10 10 28.5 28.5 10 -10z"/>
  </g>
  <path d="m89.571 318.43-14.698 14.698 122.58 122.58 11.611-11.611-1.9107-8.0839-9.8476-9.8476z" fill="#99A5EB"/>
  <path d="m45.414 362.58-14.692 14.692 108.28 108.15 9.3863 9.3863 0.4081 0.13604 9.5224 2.1765 10.883-10.883z" fill="#19277E"/>
  <path d="m207.15 436.02c0.56722 5.6736-4.1562 12.487-15.139 14.257-4.6476 18.645-14.167 27.345-29.249 29.543-2.957 12.851-6.502 15.461-14.257 15.139l49.238 11.317c0.52884-3.1385 5.0469-8.2122 8.8009-11.966 3.7541-3.7541 9.2954-8.3241 12.07-8.9049z" fill="#fd5"/>
<!-- Gradients don't render correctly in usvg!  Fix this!
   <g>
    <path d="m207.15 436.02c0.56722 5.6736-4.1562 12.487-15.139 14.257-4.6476 18.645-14.167 27.345-29.249 29.543-2.957 12.851-6.502 15.461-14.257 15.139l49.238 11.317c0.52884-3.1385 5.0469-8.2122 8.8009-11.966 3.7541-3.7541 9.2954-8.3241 12.07-8.9049z" fill="url(#linearGradient3254)"/>
    <path d="m30.779 377.22c-7.7116-7.7116-0.80205-27.124 15.433-43.359 16.235-16.235 35.647-23.144 43.359-15.433l-29.396 29.396z" fill="url(#linearGradient3258)"/>
   </g>
-->
  <path d="m81.871 315.24c-12.561 0.0261-23.54 7.8688-32.648 15.78 5.8367-2.2938 11.508-5.2226 17.923-4.0247 6.1332 1.1452 4.4966 4.2585 7.7531 5.9979 3.5275-3.5275 11.198-11.097 14.725-14.624-2.0264-2.0528-4.9276-2.9823-7.7539-3.1288z" fill="#3D4B98"/>
 </g>
</svg>
